<svg version="1.1"
     xmlns="http://www.w3.org/2000/svg"
     xml:space="preserve"
     viewBox="351 241 356 509"
     width="400"
>
    <path fill="#2d9a57" opacity="1.000000" stroke="none" d="
     M557.900146,320.403076
        C564.179749,319.358551 569.966003,318.231964 576.078735,319.460297
        C596.127136,323.488922 604.015869,344.038513 591.114502,359.921814
        C583.534485,369.253876 573.718140,374.797791 561.216431,374.336487
        C554.149353,374.075745 548.761719,370.403992 546.604370,364.206207
        C544.335266,357.687256 546.929321,352.492249 551.426025,347.979309
        C553.826904,345.569824 556.814575,344.172607 560.159302,343.407867
        C571.345215,340.850311 577.833801,346.279297 576.865784,357.475861
        C581.004944,353.563538 580.395874,347.324005 575.469360,343.172699
        C569.523254,338.162079 559.474915,337.889709 551.997437,342.536346
        C544.265381,347.341095 540.493652,356.053009 542.520386,364.426208
        C544.299561,371.776764 551.225830,377.105011 559.933899,377.822174
        C580.232300,379.493744 597.841309,366.134979 601.065125,346.618591
        C603.239868,333.452820 593.626831,319.774384 579.769958,316.477661
        C576.578552,315.718414 573.296631,315.339447 570.086121,314.790527
        C569.896729,312.820465 571.388000,312.441681 572.489807,311.856384
        C581.462036,307.090149 590.551392,302.534515 599.401855,297.553589
        C603.059204,295.495239 604.844849,296.352936 606.920410,299.691406
        C619.887329,320.548309 618.838013,344.569122 603.970398,365.244293
        C590.520325,383.948242 572.473389,395.144836 550.058228,400.472076
        C531.788391,404.814117 513.102417,407.766571 495.438416,414.381500
        C477.165710,421.224335 460.446136,430.649811 447.124512,445.394989
        C442.662140,450.334167 439.575256,455.868103 437.631989,462.213959
        C443.447571,454.476990 449.761810,447.215851 457.044983,440.836365
        C476.197754,424.060028 499.219849,415.875977 523.626160,410.684814
        C531.919861,408.920807 540.142334,406.823364 548.427185,405.015045
        C550.113464,404.646973 551.772827,403.461243 553.734680,404.309265
        C553.227417,406.652161 551.077576,406.693420 549.561646,407.413208
        C516.201111,423.254272 484.346466,441.639313 455.394958,464.651733
        C408.407959,501.999908 373.658752,548.293701 354.056458,605.426270
        C353.757324,606.298096 353.711548,607.453857 352.384399,607.677307
        C351.081299,606.451050 351.705170,604.883606 351.704926,603.491943
        C351.684723,490.343079 351.693329,377.194214 351.695679,264.045349
        C351.695831,256.574463 351.707092,256.221069 359.021454,256.764221
        C380.579071,258.364990 399.141754,267.115753 415.139923,281.405273
        C436.108734,300.134521 446.076538,324.402954 449.220490,351.694763
        C451.799744,374.084076 449.962372,396.625183 450.406281,419.093689
        C450.444061,421.006470 449.747833,423.115753 451.429199,424.761566
        C453.200989,424.728424 453.497040,423.227692 454.101318,422.124329
        C455.461273,419.641327 456.734283,417.110626 458.040710,414.598358
        C464.497498,402.181946 472.383423,392.044556 486.062408,385.697266
        C505.952240,376.468079 520.880310,360.411530 532.303955,341.910431
        C538.637085,331.653595 546.783875,324.922577 557.900146,320.403076
    z"/>
    <path fill="#89c67b" opacity="1.000000" stroke="none" d="
     M453.580872,479.562012
        C481.719421,455.124115 512.950439,436.121368 546.018616,420.004059
        C576.124084,405.330719 604.386719,388.111023 628.389404,364.286957
        C657.020142,335.869171 673.457520,301.617371 679.503662,262.045105
        C679.694458,260.796143 679.649475,259.511139 679.414246,258.181274
        C676.619141,270.615662 673.146423,282.782471 667.798401,294.481262
        C665.941528,293.382019 666.636536,292.085266 666.690002,291.055267
        C667.169128,281.831665 666.528381,272.719025 663.560852,263.931671
        C662.433105,260.592163 663.055420,258.263062 665.707520,256.037994
        C669.802246,252.602646 673.282715,248.556335 676.592773,244.359131
        C677.557312,243.136215 678.236816,241.384460 680.540710,241.419968
        C682.682373,247.917740 682.903259,254.770660 683.116577,261.423981
        C683.927917,286.733765 683.568176,311.967163 677.445190,336.831787
        C669.411743,369.454620 654.702637,398.527679 632.830139,424.019257
        C605.083008,456.357513 570.528015,479.957092 534.105774,501.193390
        C507.641449,516.623596 480.569244,531.087219 455.362244,548.558167
        C425.205170,569.459839 397.627258,593.119141 377.781036,624.640442
        C364.449860,645.814087 357.063690,668.529968 359.384125,693.781860
        C360.482910,705.739563 364.484222,716.786987 371.158783,726.831360
        C371.856476,727.881287 373.090576,728.727112 372.839661,730.702454
        C370.436920,730.242554 369.412933,728.295349 368.191620,726.726257
        C357.643158,713.174744 353.518494,697.403442 352.726105,680.620850
        C350.546967,634.467896 366.132782,593.372192 388.874603,554.310364
        C405.694580,525.420044 428.607941,501.842682 453.580872,479.562012
    z"/>
    <path fill="#a3c555" opacity="1.000000" stroke="none" d="
     M699.406616,738.771912
        C670.096130,731.513977 647.870117,714.661560 630.898987,690.486755
        C618.154358,672.332397 607.618774,652.807617 596.198059,633.832214
        C583.270325,612.352722 568.895508,591.995422 550.411316,574.810913
        C533.054688,558.674622 513.391235,547.170959 489.491913,543.993347
        C488.176178,543.818359 486.882629,543.466187 485.586243,543.164185
        C485.274445,543.091553 484.992767,542.889465 484.647491,542.722961
        C484.218719,540.647644 486.043060,540.366699 487.205902,539.682373
        C498.832764,532.840881 510.521576,526.103516 522.097473,519.177307
        C524.410522,517.793396 526.420776,518.061829 528.722168,518.801147
        C557.365662,528.003052 581.174744,544.511414 601.157776,566.764709
        C620.773438,588.608765 633.679871,614.542664 646.342651,640.671997
        C658.100159,664.932983 668.968079,689.683777 684.190247,712.124207
        C690.016602,720.713379 696.732910,728.513611 704.221069,735.677185
        C705.523621,736.923340 707.160156,737.900208 707.810181,739.721985
        C697.512756,750.582947 621.816284,746.152344 603.687744,733.598450
        C604.706604,731.921448 606.510498,732.051270 608.020020,731.901184
        C619.862488,730.722778 630.137329,725.898376 639.069885,718.267456
        C641.917175,715.835083 643.709351,715.775269 646.635010,718.201538
        C662.078918,731.009399 679.938049,738.062378 699.927979,739.728210
        C700.093140,739.742004 700.359314,739.792725 700.412415,739.714172
        C701.132996,738.647278 699.887573,739.186584 699.406616,738.771912
    z"/>
    <path fill="#128f71" opacity="1.000000" stroke="none" d="
     M381.223969,639.310303
        C397.916290,608.734314 422.050537,585.637329 449.221802,565.244080
        C451.562714,567.625854 450.994568,569.719666 450.998047,571.639587
        C451.102600,629.246216 451.123291,686.853088 451.357483,744.459106
        C451.377106,749.284668 450.066925,750.539246 445.202972,750.561768
        C429.942932,750.632385 415.350525,748.228394 401.937897,740.675354
        C381.301819,729.054382 370.221313,711.644775 369.562866,687.631104
        C369.093536,670.513184 373.578857,654.762390 381.223969,639.310303
    z"/>
    <path fill="#53ac6a" opacity="1.000000" stroke="none" d="
     M521.111877,563.740906
        C537.652832,573.034302 551.106689,585.334167 562.412354,599.994080
        C570.031860,609.874023 571.583313,621.172546 568.934448,633.116577
        C568.229248,636.296631 566.919556,639.394958 564.539917,641.653564
        C562.341614,641.167725 562.767029,639.505249 562.433228,638.350403
        C558.602112,625.097778 547.190186,617.609070 535.894775,620.987915
        C523.955017,624.559509 517.862305,637.919556 522.169128,651.113037
        C527.242126,666.653564 538.270996,677.317688 551.301575,686.193726
        C571.634583,700.044189 593.010742,701.577515 615.121216,690.769287
        C618.294006,689.218323 620.211731,689.582275 622.243835,692.402466
        C626.729126,698.627075 631.707031,704.466309 637.314087,709.717346
        C639.491455,711.756531 639.136719,713.234192 637.032532,714.973389
        C623.468384,726.184509 607.838196,730.488647 590.473511,728.920532
        C587.621216,728.663025 585.086792,727.241882 582.573425,725.924072
        C551.659241,709.714233 527.684875,686.286560 509.968842,656.295227
        C498.940582,637.625549 489.803833,617.986572 480.201385,598.587830
        C474.126831,586.316101 467.851074,574.192383 458.535309,563.982910
        C456.068542,561.279541 456.968719,559.912842 459.406158,557.616943
        C468.537018,549.016174 479.182770,550.314758 489.982361,552.292053
        C500.878143,554.286926 511.152832,558.073669 521.111877,563.740906
    z"/>
    <path fill="#79b861" opacity="1.000000" stroke="none" d="
     M593.205200,693.436218
        C581.794312,695.250427 571.582520,692.760315 561.887207,687.770081
        C546.977051,680.095703 535.143982,669.203369 527.421448,654.147400
        C525.086121,649.594482 524.272278,644.729431 524.663391,639.617310
        C525.569336,627.774963 536.299866,621.073364 547.325867,625.518616
        C554.504395,628.412659 559.980408,637.579956 558.895386,645.319702
        C558.327759,649.368591 557.102234,653.287292 552.492493,654.582520
        C548.093201,655.818665 544.678894,653.806580 541.852112,650.711975
        C540.545532,649.281616 539.641785,647.483337 538.472473,645.727356
        C538.487976,651.305664 540.993713,655.076599 545.801880,656.938477
        C550.850220,658.893372 555.589661,657.955811 558.738831,653.481201
        C561.514465,649.537170 564.664856,646.101379 568.012024,642.650391
        C573.225952,637.274780 574.599060,630.121094 574.548218,622.756592
        C574.538147,621.300659 574.316711,619.846130 574.168335,618.104614
        C576.790710,618.218689 577.143799,620.362183 578.016418,621.666931
        C588.859680,637.879700 597.953186,655.154053 608.265076,671.691467
        C610.115906,674.659546 612.042358,677.580505 613.935242,680.522339
        C617.050598,685.364441 616.869080,686.155029 611.385620,688.471741
        C605.697998,690.874695 599.814941,692.679749 593.205200,693.436218
    z"/>
    <path fill="#99c652" opacity="1.000000" stroke="none" d="
     M634.514282,346.396118
        C623.773804,357.240540 613.490906,368.052795 600.539001,377.167389
        C600.425476,374.090515 602.080322,373.035431 603.228821,371.856537
        C623.184204,351.372620 624.441467,319.407715 609.867126,297.677277
        C607.691772,294.433807 608.434204,292.877350 611.660034,291.197174
        C617.416504,288.198883 622.974548,284.820831 628.632935,281.632385
        C633.879333,278.676086 634.287415,278.871857 636.392517,284.399628
        C643.134155,302.102264 643.921753,320.023438 638.723389,338.263580
        C637.883301,341.211121 637.082214,344.005890 634.514282,346.396118
    z"/>
    <path fill="#a0c75e" opacity="1.000000" stroke="none" d="
     M653.309570,266.219482
        C655.303589,265.031281 656.510803,263.199249 658.688354,263.065613
        C669.476257,278.975403 660.848083,321.497650 643.722107,332.664764
        C645.547363,325.518005 645.849792,319.000946 645.829468,312.442078
        C645.795898,301.596649 643.288391,291.298065 638.846619,281.542725
        C637.098022,277.702362 637.940186,275.926117 641.287964,274.029236
        C645.332642,271.737457 649.117188,268.986420 653.309570,266.219482
    z"/>
    <path fill="#65b55e" opacity="1.000000" stroke="none" d="
     M514.183289,348.145264
        C519.409302,344.335114 524.353577,340.746490 529.612854,336.929352
        C529.424377,345.310974 497.135345,379.286743 478.475739,384.942535
        C488.878387,370.166351 500.941254,358.845337 514.183289,348.145264
    z"/>
</svg>